<?xml version="1.0" encoding="UTF-8"?>
<svg id="_图层_1" data-name="图层 1" xmlns="http://www.w3.org/2000/svg" viewBox="0 0 595.28 841.89">
  <defs>
    <style>
      .cls-1 {
        fill: #dd7498;
        stroke-width: 0px;
      }
    </style>
  </defs>
  <path class="cls-1" d="M532.1,174.59s-123.85,166.52-80.7,225.86c17.78,24.44,44.88,36.1,65.93,55.56,25.91,23.96,57.04,51.85,57.04,51.85,0,0-172.13-86.93-157.51.3s44.75,223.07,44.75,223.07c0,0-98.59-214.78-127.06-221.81-28.48-7.03-87.67,208.73-87.67,208.73,0,0,12.38-194.4-7.12-213.78-19.49-19.38-176.86,78.27-176.86,78.27,0,0,146.27-111.72,140.71-143.84-5.56-32.12-180.6-68.31-180.6-68.31,0,0,170.68,23.25,196.21-19.01,25.54-42.25-34.32-263.12-34.32-263.12,0,0,47.7,189.27,123.16,189.55s224.04-103.31,224.04-103.31Z"/>
</svg>