<?xml version="1.0" encoding="UTF-8"?>
<svg id="_图层_1" data-name="图层 1" xmlns="http://www.w3.org/2000/svg" viewBox="0 0 585.07 516.46">
  <defs>
    <style>
      .cls-1 {
        fill: #c25264;
        stroke-width: 0px;
      }
    </style>
  </defs>
  <path class="cls-1" d="M264.64,191.39s-14.08-218.84,35.75-139.76c49.84,79.09,22.21,141.92,75.3,121.34,53.09-20.58,152.76-35.75,150.05,4.88-2.71,40.63-145.17,88.3-170.63,108.88-25.46,20.58,239.97-.54,229.68,89.92-10.29,90.46-234.01-3.79-281.14-44.42s40.09,180.38,18.96,184.18c-21.13,3.79-54.71-182.01-94.8-186.34s17.88,184.18-67.71,177.13,84.5-138.13,16.79-225.89C109.18,193.56,9.5,431.9.84,340.9s51.46-161.97,108.34-147.34C166.05,208.18,14.38-18.79,59.88,1.25c45.5,20.04,192.3,205.3,204.76,190.13Z"/>
</svg>