<?xml version="1.0" encoding="utf-8"?>
<!-- Generator: Adobe Adobe Illustrator 24.2.0, SVG Export Plug-In . SVG Version: 6.00 Build 0)  -->
<svg version="1.1" id="Layer_1" xmlns="http://www.w3.org/2000/svg" xmlns:xlink="http://www.w3.org/1999/xlink" x="0px" y="0px"
	 width="612px" height="792px" viewBox="0 0 612 792" style="enable-background:new 0 0 612 792;" xml:space="preserve">
<style type="text/css">
	.st0{fill:#DDB6B7;}
</style>
<path class="st0" d="M208.05,346.64c-41.82-53.68-57.6-127.36-41.51-193.84c3.63-15.01,11.89-32.23,27.05-33.4
	c7.01-0.54,13.79,2.74,19.53,6.87c28.36,20.39,36.72,59.77,34.78,95.03s-11.85,69.96-10.63,105.25c0.31,9.07,2.82,20.01,11.35,22.66
	c11.21,3.48,19.73-10.28,23.13-21.68c18.88-63.26,19.97-134.46,58.6-187.64c19.47-26.8,54.02-47.77,84.37-35.2
	c27.82,11.52,39.48,47.22,33.88,77.22c-5.6,30-24.17,55.56-42.23,79.97c-18.95,25.62-37.91,51.24-56.86,76.86
	c-3.75,5.07-7.6,10.37-8.81,16.59c-1.2,6.22,1.1,13.63,6.81,16.18c3.86,1.72,8.32,0.91,12.43-0.07
	c20.36-4.88,39.71-13.32,59.82-19.17c34.58-10.07,71.34-12.34,106.87-6.61c16.44,2.65,32.99,7.17,46.68,16.79
	s24.21,25.08,24.67,41.99c0.69,25.22-20.54,46.04-43.42,55.82c-66.05,28.25-150.55-6.82-209.31,34.88
	c-4.99,3.54-9.79,7.76-12.31,13.4c-4.69,10.51-0.33,22.67,3.71,33.46c9.13,24.33,16.71,50.59,11.77,76.14
	c-4.05,20.93-21.03,42.1-41.88,39.62c-17.71-2.1-29.67-20.44-32.55-38.33c-2.88-17.89,0.74-36.13,0.87-54.26
	c0.11-14.36-6.14-32.71-20.27-32.55c-11.63,0.13-18.43,12.95-23.24,23.71c-6.9,15.44-15.11,30.74-27.65,41.92
	c-12.54,11.18-30.21,17.64-46.24,12.99c-20.22-5.87-32.65-28.08-33.34-49.45s8.01-41.86,18.15-60.59
	c10.46-19.3,24.15-38.87,44.73-45.78c16.86-5.66,39.47-4.16,47.31-20.35c-4.83-8.6-16.57-9.25-26.3-8.83
	c-43.18,1.84-86.36,3.68-129.54,5.52c-18.25,0.78-38.47,0.9-52.26-11.29c-19.56-17.29-14.18-52.39,5.73-69.27
	c19.91-16.87,48.57-18.69,73.99-13.49c25.41,5.19,49.25,16.43,74.33,23.06c9.19,2.43,19.27,4.16,27.9,0.13
	C216.8,356.87,222.25,344.83,208.05,346.64z"/>
</svg>
