<?xml version="1.0" encoding="utf-8"?>
<!-- Generator: Adobe Adobe Illustrator 24.2.0, SVG Export Plug-In . SVG Version: 6.00 Build 0)  -->
<svg version="1.1" id="Layer_1" xmlns="http://www.w3.org/2000/svg" xmlns:xlink="http://www.w3.org/1999/xlink" x="0px" y="0px"
	 width="612px" height="792px" viewBox="0 0 612 792" style="enable-background:new 0 0 612 792;" xml:space="preserve">
<style type="text/css">
	.st0{fill:#DDB6B7;}
</style>
<path class="st0" d="M414.96,432.08c10.45-19.69,33.06-30.39,54.23-29.44c21.17,0.95,40.73,12.04,56.13,26.87
	c44.5,42.86,55.5,116.18,35.48,177.59c-10.43,32-29.45,62.51-57.62,79.23c-38.2,22.67-88.17,15.17-121.54-12.78
	s-50.93-73.26-52.74-118.6c7.93,38.02,1.03,79.64-18.81,113.45c-15.48,26.38-40.35,48.74-69.36,52.66
	c-17.7,2.39-35.5-2.19-51.67-9.48c-56.99-25.68-96.7-87.2-99.35-152.81c-1.25-30.9,5.54-63.12,23.09-88.59
	c17.55-25.46,46.75-43.11,76.21-41.6c-67.3,17.2-141.94-26.42-162.13-94.76c-6.35-21.51-7.64-45.61,0.89-66.75
	c14.24-35.3,51.82-54.18,87.48-61.69c33.59-7.08,68.91-6.9,100.71,4.93c31.8,11.84,59.75,36.1,72.94,68.62
	c-14.84-44.76-11.19-96.7,11.08-139.14c8.96-17.07,20.96-32.76,36.33-43.75c12.96-9.27,28.03-14.99,43.38-17.58
	c44.47-7.52,90.84,12.26,118.86,48.09s37.76,86.09,28.13,132.32s-37.73,87.92-74.77,115.59c-11.92,8.91-24.92,16.61-34.67,28.08
	C407.47,413.99,401.49,430.66,414.96,432.08z"/>
</svg>
