<?xml version="1.0" encoding="utf-8"?>
<!-- Generator: Adobe Adobe Illustrator 24.2.0, SVG Export Plug-In . SVG Version: 6.00 Build 0)  -->
<svg version="1.1" id="Layer_1" xmlns="http://www.w3.org/2000/svg" xmlns:xlink="http://www.w3.org/1999/xlink" x="0px" y="0px"
	 width="612px" height="792px" viewBox="0 0 612 792" style="enable-background:new 0 0 612 792;" xml:space="preserve">
<style type="text/css">
	.st0{fill:#DDB6B7;}
</style>
<path class="st0" d="M364.31,373.77c43.81-15.82,94.04-1.68,131.14,26.99s62.91,70.08,83.76,112.68
	c8.56,17.49,16.58,35.99,16.94,55.56c0.36,19.57-8.74,40.55-26.2,48.4c-18,8.09-39.06,0.41-55.64-10.42
	c-28.9-18.88-50.98-46.66-75.15-71.57c-24.17-24.92-52.6-48.16-86.42-53.75c-20.47-3.38-44.59,1.93-54.97,20.35
	c-8.73,15.51-5.02,35.4,2.51,51.57c21.33,45.8,67.35,72.63,106,104.3c12.98,10.64,26.51,28.02,18.31,42.84
	c-2.95,5.33-8.23,8.86-13.68,11.37c-29.69,13.67-65.4,0.88-90.38-20.53c-24.98-21.41-42.51-50.35-63.59-75.79
	c-12.42-14.98-28.75-29.89-47.85-28.45c-24.53,1.84-39.49,30.29-39.58,55.55c-0.07,20.34,6.09,41.88-2.3,60.31
	c-6.36,13.99-20.13,23.13-34.47,27.79c-45.52,14.82-99.91-14.85-113.96-61.71c-14.05-46.86,14.19-102.44,59.48-118
	c26.87-9.23,60.31-7.55,77.88-30.36c14.15-18.37,11.01-45.58,0.74-66.49c-2.46-5-5.56-10.11-10.52-12.45
	c-13.57-6.4-25.41,10.94-37.93,19.31c-18.98,12.69-47.3,1.99-57.17-18.93c-9.87-20.92-2.99-47.53,12.95-64.05
	c15.95-16.51,39.23-23.89,61.87-24.39c22.64-0.51,44.96,5.19,66.71,11.65c5,1.48,12.02,2.05,13.81-2.97
	c0.62-1.73,0.32-3.65-0.01-5.47c-8.41-46.05-32.12-87.68-43.89-132.96s-8.13-100.6,27.83-129.45c21.51-17.26,50.81-21.5,77.83-17.5
	c39.44,5.84,76.27,28.47,99.91,61.41c15.41,21.46,25.41,49.27,18.21,74.88c-12.27,43.61-64.51,58.84-94.29,92.39
	c-8.22,9.26-15.05,21.63-12.22,33.81c3.1,13.3,17.09,21.46,30.4,22.03s26.11-4.74,38.43-9.95
	C358.39,347.71,367.97,343.66,364.31,373.77z"/>
</svg>
