<?xml version="1.0" encoding="UTF-8"?>
<svg id="_图层_1" data-name="图层 1" xmlns="http://www.w3.org/2000/svg" viewBox="0 0 555.76 655.41">
  <defs>
    <style>
      .cls-1 {
        fill: #cda3b0;
        stroke-width: 0px;
      }
    </style>
  </defs>
  <path class="cls-1" d="M191.6,261.31c2.25,1.37,5.1-.42,4.85-3.05-3.28-33.6-17.18-186.59,6.15-144.84,26.16,46.81,32.36,141.13,39.93,146.64S235.64,15.67,261.11.52c25.47-15.15,2.07,305.67,30.98,294.65,28.91-11.01,180.37-264.36,192.07-201.71,11.7,62.65-146.69,198.27-102.6,223.74,44.09,25.47,173.51-33.73,174.2,5.51.69,39.24-133.56,47.5-158.34,48.88-24.78,1.38,40.62,28.91,62.65,95.69,22.03,66.78-2.07,62.65-75.04-14.46-72.97-77.1-98.45-58.11-83.99-41.99,84.95,94.7,56.45,295.34,21.34,232.69s-52.32-259.54-70.22-257.47,19.28,192.07-13.08,212.04c-32.36,19.96-30.63-121.85-49.74-157.65-19.11-35.8-28.06,87.43-66.61,90.87-38.55,3.44-21.34-57.14,5.51-91.56,26.85-34.42-127.36-21.34-121.16-66.09s67.47-8.95,109.46-20.65c41.99-11.7-155.26-183.12-109.64-180.37,40.31,2.43,157.89,72.43,184.7,88.68Z"/>
</svg>